PathFileType	4	(X/Y/Z)	C:\Users\Graham\Documents\MATLAB\MOtoNMS_v2_2\MyData\ElaboratedData\S1\17-05-18\staticElaborations\Static1\Static1\\Static1.trc
DataRate	CameraRate	NumFrames	NumMarkers	Units	OrigDataRate	DataStartFrame
100	100	6	38	mm	100	2
Frame#	Time	V_Sacral			R_ASIS			L_ASIS			R_Knee_Lat			R_Knee_Med			R_Thigh_Upper			R_Thigh_Front			R_Thigh_Rear			L_Knee_Lat			L_Knee_Med			L_Thigh_Upper			L_Thigh_Front			L_Thigh_Rear			R_Ankle_Lat			R_Ankle_Med			R_Shank_Upper			R_Shank_Front			R_Shank_Rear			L_Ankle_Lat			L_Ankle_Med			L_Shank_Upper			L_Shank_Front			L_Shank_Rear			R_Heel			R_MTP1			R_MTP5			L_Heel			L_MTP1			L_MTP5			Clavicle			R_Acromium			L_Acromium			LAJC			RAJC			LHJC			RHJC			LKJC			RKJC		
		X1	Y1	Z1	X2	Y2	Z2	X3	Y3	Z3	X4	Y4	Z4	X5	Y5	Z5	X6	Y6	Z6	X7	Y7	Z7	X8	Y8	Z8	X9	Y9	Z9	X10	Y10	Z10	X11	Y11	Z11	X12	Y12	Z12	X13	Y13	Z13	X14	Y14	Z14	X15	Y15	Z15	X16	Y16	Z16	X17	Y17	Z17	X18	Y18	Z18	X19	Y19	Z19	X20	Y20	Z20	X21	Y21	Z21	X22	Y22	Z22	X23	Y23	Z23	X24	Y24	Z24	X25	Y25	Z25	X26	Y26	Z26	X27	Y27	Z27	X28	Y28	Z28	X29	Y29	Z29	X30	Y30	Z30	X31	Y31	Z31	X32	Y32	Z32	X33	Y33	Z33	X34	Y34	Z34	X35	Y35	Z35	X36	Y36	Z36	X37	Y37	Z37	X38	Y38	Z38	

176	1.750000	-45.823635	1071.424793	5.361289	155.257045	1026.244985	127.708933	153.200830	1034.699996	-104.758879	16.225856	533.332183	173.193813	40.783817	522.554252	65.603658	147.284374	867.328852	169.761107	158.068723	743.949463	135.743003	105.172489	743.440190	195.587376	19.708217	537.525491	-163.932889	27.786230	520.990685	-56.348105	155.262060	862.394951	-145.552149	158.049239	744.586511	-95.968201	119.550175	742.716429	-172.200038	11.809988	111.609911	183.744023	20.737691	107.596105	99.393830	67.451921	329.703907	164.454780	44.920620	217.168802	108.769685	33.919721	213.595795	190.041386	6.029306	99.832627	-175.018155	25.265096	104.843338	-86.518353	59.531557	332.498210	-149.831690	41.133646	214.550069	-105.411203	27.901026	217.176305	-183.672197	-56.131787	53.669598	127.685896	174.679786	62.764731	115.647523	161.888728	57.055556	191.787601	-62.473066	56.896802	-125.385497	174.505106	58.963227	-112.317777	151.681129	51.713866	-197.136124	151.789853	1461.585060	10.953800	111.386116	1499.881943	203.529435	94.260431	1506.662250	-190.286845	15.647201	102.337983	-130.768254	16.273840	109.603008	141.568927	79.649173	966.234271	-74.328662	81.135324	960.123324	93.689877	23.747224	529.258088	-110.140497	28.504837	527.943218	119.398735	
177	1.760000	-45.803798	1071.427781	5.391323	155.295376	1026.243640	127.694520	153.193973	1034.691601	-104.772285	16.238554	533.336281	173.227872	40.799294	522.558542	65.609566	147.320363	867.327399	169.755611	158.099315	743.950167	135.739320	105.213805	743.442432	195.590720	19.698643	537.521531	-163.925818	27.785759	520.988543	-56.341950	155.251145	862.387955	-145.559376	158.045797	744.580688	-95.974713	119.536723	742.709622	-172.200485	11.810557	111.610652	183.744991	20.738855	107.597294	99.394842	67.462964	329.700056	164.454959	44.927811	217.168683	108.770547	33.929366	213.595459	190.041980	6.029785	99.831714	-175.017382	25.265236	104.843504	-86.517505	59.526346	332.496474	-149.829646	41.133594	214.550078	-105.409402	27.895393	217.174480	-183.668749	-56.133103	53.670979	127.684571	174.678957	62.764782	115.646863	161.889156	57.056793	191.788000	-62.473677	56.898362	-125.387254	174.505409	58.964080	-112.318493	151.680965	51.713783	-197.135295	151.822905	1461.594028	10.902565	111.445761	1499.877121	203.463475	94.236037	1506.650536	-190.326207	15.647510	102.337609	-130.767444	16.274706	109.603973	141.569916	79.646151	966.230178	-74.325706	81.164962	960.124324	93.692159	23.742201	529.255037	-110.133884	28.518924	527.947411	119.418719	
178	1.770000	-45.781094	1071.432618	5.417818	155.332045	1026.238364	127.684393	153.194297	1034.681303	-104.781162	16.232240	533.341290	173.288663	40.808115	522.560645	65.614560	147.349471	867.322873	169.753018	158.121879	743.947992	135.739083	105.242927	743.442219	195.595807	19.689343	537.517462	-163.919125	27.783388	520.986103	-56.336053	155.244830	862.378788	-145.562073	158.042679	744.572553	-95.977299	119.526874	742.701524	-172.198419	11.810225	111.611379	183.745328	20.739165	107.598534	99.395329	67.470094	329.697191	164.456019	44.933790	217.168553	108.771337	33.935333	213.595170	190.043386	6.030131	99.830929	-175.017154	25.266022	104.843779	-86.516728	59.521057	332.495098	-149.827616	41.134172	214.549527	-105.406767	27.890104	217.172847	-183.665847	-56.134229	53.671923	127.683029	174.677954	62.765131	115.646364	161.889340	57.058192	191.788473	-62.474333	56.899584	-125.388993	174.505522	58.964910	-112.319362	151.680831	51.713645	-197.134596	151.852213	1461.599782	10.856623	111.484047	1499.866793	203.386609	94.219027	1506.639900	-190.357734	15.648076	102.337354	-130.766941	16.274695	109.604957	141.570328	79.647405	966.225692	-74.321579	81.192486	960.123465	93.695451	23.736366	529.251782	-110.127589	28.520177	527.950967	119.451611	
179	1.780000	-45.754452	1071.439289	5.440633	155.367929	1026.229497	127.678145	153.202391	1034.669439	-104.785730	16.210351	533.346821	173.369888	40.810712	522.560542	65.618384	147.372447	867.315313	169.752814	158.136551	743.942490	135.741515	105.260926	743.439630	195.602116	19.680555	537.513486	-163.912912	27.779375	520.983284	-56.330541	155.243219	862.367671	-145.560859	158.039683	744.562287	-95.976534	119.520250	742.692403	-172.194315	11.809069	111.612010	183.745105	20.738769	107.599724	99.395370	67.473794	329.695344	164.457844	44.938227	217.168179	108.772113	33.938124	213.595018	190.045469	6.030348	99.830257	-175.017304	25.267266	104.844045	-86.515978	59.515790	332.494145	-149.825739	41.135253	214.548245	-105.403231	27.885234	217.171475	-183.663587	-56.135000	53.672364	127.681536	174.676830	62.765757	115.646076	161.889264	57.059661	191.788937	-62.474927	56.900249	-125.390435	174.505428	58.965606	-112.320332	151.680705	51.713452	-197.134142	151.874649	1461.602536	10.817405	111.493640	1499.850725	203.299293	94.206780	1506.630695	-190.380940	15.648807	102.337151	-130.766641	16.273919	109.605867	141.570237	79.653761	966.221083	-74.316445	81.218928	960.121019	93.699467	23.729965	529.248385	-110.121726	28.510531	527.953682	119.494136	
180	1.790000	-45.723133	1071.447626	5.459745	155.403730	1026.217713	127.675281	153.218455	1034.656588	-104.786296	16.177424	533.352558	173.464080	40.808196	522.558414	65.620870	147.390400	867.305084	169.754431	158.143952	743.933572	135.745709	105.269523	743.434915	195.609108	19.672835	537.509798	-163.907267	27.774258	520.980056	-56.325515	155.246424	862.355090	-145.556440	158.036940	744.550333	-95.972991	119.516715	742.682683	-172.188624	11.807290	111.612476	183.744435	20.737873	107.600761	99.395064	67.474811	329.694483	164.460251	44.941026	217.167409	108.772934	33.938454	213.595067	190.048032	6.030454	99.829689	-175.017662	25.268763	104.844210	-86.515232	59.510862	332.493595	-149.824121	41.136671	214.546181	-105.398884	27.881007	217.170402	-183.662008	-56.135283	53.672303	127.680342	174.675660	62.766581	115.646031	161.888949	57.061076	191.789330	-62.475344	56.900208	-125.391351	174.505148	58.966100	-112.321329	151.680555	51.713229	-197.134014	151.888274	1461.602913	10.786425	111.469567	1499.829165	203.203542	94.196649	1506.623165	-190.395770	15.649609	102.336950	-130.766447	16.272582	109.606618	141.569749	79.665839	966.216720	-74.310469	81.245273	960.117422	93.703917	23.723547	529.244927	-110.116391	28.492810	527.955486	119.542475	
181	1.800000	-45.686935	1071.457272	5.475252	155.439857	1026.203978	127.675266	153.242222	1034.643523	-104.783244	16.138558	533.358240	173.563439	40.802236	522.554615	65.621962	147.404717	867.292853	169.757291	158.145269	743.921590	135.750720	105.270982	743.428468	195.616240	19.666995	537.506556	-163.902263	27.768823	520.976454	-56.321053	155.254572	862.341763	-145.549538	158.034987	744.537370	-95.967190	119.516441	742.672914	-172.181742	11.805192	111.612731	183.743454	20.736711	107.601562	99.394510	67.474084	329.694502	164.463011	44.942378	217.166241	108.773836	33.937177	213.595344	190.050830	6.030477	99.829233	-175.018083	25.270315	104.844230	-86.514491	59.506774	332.493357	-149.822820	41.138282	214.543429	-105.393952	27.877767	217.169634	-183.661084	-56.135007	53.671796	127.679638	174.674537	62.767478	115.646237	161.888455	57.062310	191.789615	-62.475494	56.899406	-125.391602	174.504729	58.966381	-112.322266	151.680335	51.713025	-197.134243	151.892607	1461.601815	10.765043	111.410531	1499.803041	203.103041	94.186442	1506.617339	-190.402628	15.650396	102.336732	-130.766287	16.270952	109.607147	141.568982	79.683945	966.213006	-74.303812	81.272314	960.113217	93.708541	23.717909	529.241505	-110.111658	28.470397	527.956428	119.592700	
